<?xml version="1.0" encoding="UTF-8" standalone="no"?>
<!-- Created with Inkscape (http://www.inkscape.org/) -->

<svg
   width="108.6813mm"
   height="108.6808mm"
   version="1.1"
   viewBox="0 0 108.6813 108.6808"
   id="svg1"
   sodipodi:docname="dpad.svg"
   inkscape:version="1.4.4 (dcaf3e7d9e, 2026-05-05)"
   xmlns:inkscape="http://www.inkscape.org/namespaces/inkscape"
   xmlns:sodipodi="http://sodipodi.sourceforge.net/DTD/sodipodi-0.dtd"
   xmlns="http://www.w3.org/2000/svg"
   xmlns:svg="http://www.w3.org/2000/svg">
  <defs
     id="defs1" />
  <sodipodi:namedview
     id="namedview1"
     pagecolor="#505050"
     bordercolor="#eeeeee"
     borderopacity="1"
     inkscape:showpageshadow="0"
     inkscape:pageopacity="0"
     inkscape:pagecheckerboard="0"
     inkscape:deskcolor="#505050"
     inkscape:document-units="mm"
     inkscape:zoom="2.0004787"
     inkscape:cx="203.45131"
     inkscape:cy="246.69096"
     inkscape:window-width="2214"
     inkscape:window-height="1412"
     inkscape:window-x="0"
     inkscape:window-y="0"
     inkscape:window-maximized="0"
     inkscape:current-layer="g1"
     showgrid="false" />
  <g
     transform="matrix(0.95388468,0,0,0.95388468,-36.633003,-17.125021)"
     id="g1"
     style="fill:none;stroke:#000000;stroke-opacity:1;paint-order:normal">
    <path
       id="path6-3-0"
       style="fill:none;stroke:#000000;stroke-width:6.29006852;stroke-linejoin:round;stroke-miterlimit:1;stroke-opacity:1;paint-order:normal;stroke-dasharray:none"
       d="M 64.54793,74.920401 H 48.78549 m 93.48329,10e-7 H 126.50634 M 88.522672,21.61297 c -4.452932,0 -8.037903,3.584428 -8.037903,8.037361 V 60.033679 H 50.101963 c -4.452933,0 -8.037903,3.58497 -8.037903,8.037903 v 13.697535 c 0,4.452933 3.58497,8.037903 8.037903,8.037903 h 30.382806 v 30.38335 c 0,4.45293 3.584971,8.0379 8.037903,8.0379 h 13.698078 c 4.45293,0 8.0379,-3.58497 8.0379,-8.0379 V 89.80702 h 30.38281 c 4.45293,0 8.0379,-3.58497 8.0379,-8.037903 V 68.071582 c 0,-4.452933 -3.58497,-8.037903 -8.0379,-8.037903 H 110.25865 V 29.650331 c 0,-4.452933 -3.58497,-8.037361 -8.0379,-8.037361 z m 6.849077,84.13125 v 15.76244 m 1e-6,-93.483286 v 15.76244" />
  </g>
</svg>
